<svg width="65" height="64" viewBox="0 0 65 64" fill="none" xmlns="http://www.w3.org/2000/svg">
<path d="M31.9438 57.0668C31.998 57.0965 32.0818 57.1416 32.1656 57.1866C32.2108 57.1338 32.2443 57.0939 32.2778 57.054C32.5809 57.1106 32.8801 57.1222 33.1845 57.0823C33.2799 57.0694 33.378 57.0875 33.4747 57.0887C33.5495 57.09 33.6333 57.1119 33.6978 57.0862C33.9261 56.996 34.1698 57.023 34.4046 56.9792C34.7076 56.9239 34.7102 56.938 35.1255 57.063C35.1513 57.0256 35.1835 56.9857 35.208 56.9406C35.2403 56.8839 35.2944 56.8607 35.3447 56.8826C35.5537 56.9702 35.7497 56.9058 35.9522 56.8594C36.2604 56.7873 36.5713 56.7371 36.8898 56.7525C36.9543 56.7551 37.0252 56.759 37.0833 56.7358C37.4444 56.6005 37.8081 56.6108 38.1769 56.6984C38.2079 56.7061 38.2414 56.7036 38.2878 56.7061C38.3485 56.5451 38.4877 56.4807 38.6438 56.5013C38.8166 56.5245 38.9636 56.4665 39.121 56.4227C39.3609 56.357 39.5917 56.2488 39.851 56.263C39.9116 56.2656 39.9928 56.2424 40.0328 56.1999C40.1373 56.0865 40.2637 56.0981 40.3965 56.0981C40.568 56.0981 40.7408 56.0839 40.9524 56.0749C40.9665 56.0556 40.9949 55.9976 41.0413 55.9577C41.0878 55.9178 41.1587 55.8637 41.2039 55.8752C41.3135 55.901 41.3934 55.8469 41.4863 55.8224C41.6114 55.7902 41.7417 55.7683 41.8706 55.7554C42.0267 55.74 42.1724 55.7155 42.2756 55.5777C42.2988 55.5467 42.3452 55.5261 42.3839 55.5158C42.6909 55.4424 42.9927 55.3561 43.2919 55.2543C43.4337 55.2067 43.5988 55.2247 43.7394 55.1757C43.8684 55.1307 43.9741 55.0199 44.1018 54.9658C44.303 54.882 44.5119 54.8266 44.7325 54.8009C44.9801 54.7712 45.2251 54.7133 45.456 54.6064C45.6146 54.5329 45.7758 54.4672 45.9383 54.4028C46.0286 54.3667 46.1228 54.3423 46.2156 54.3139C46.2569 54.301 46.3072 54.3023 46.3394 54.2779C46.6051 54.0782 46.9043 53.961 47.2319 53.9159C47.2422 53.9146 47.2551 53.9133 47.2641 53.9081C47.5646 53.693 47.9374 53.6015 48.2172 53.3491C48.3978 53.1855 48.4042 53.1919 48.6519 53.1674C48.8569 52.9317 49.0865 52.7191 49.3767 52.5839C49.4257 52.5607 49.4734 52.5246 49.525 52.5194C49.752 52.4988 49.8951 52.3533 50.0331 52.1974C50.0615 52.1652 50.1002 52.1111 50.126 52.1149C50.2924 52.142 50.353 52.0273 50.4342 51.9217C50.4703 51.8741 50.5451 51.856 50.6019 51.8225C50.687 51.7736 50.7708 51.7246 50.816 51.628C50.8327 51.5906 50.8689 51.5572 50.9037 51.5353C51.1204 51.4013 51.2751 51.2068 51.435 51.0161C51.4815 50.9607 51.5511 50.9195 51.6169 50.886C51.898 50.743 52.1779 50.5974 52.4062 50.3746C52.53 50.2522 52.6409 50.1143 52.775 50.0049C52.9079 49.8979 53.0884 49.8606 53.2187 49.7408C53.2664 49.697 53.3283 49.6661 53.3709 49.6184C53.8365 49.0851 54.3627 48.6084 54.7986 48.0493C54.8721 47.9553 54.934 47.851 55.0062 47.7556C55.2642 47.4181 55.5247 47.0819 55.7839 46.7457C55.9232 46.564 56.0651 46.3837 56.2043 46.2033C56.403 45.9457 56.6003 45.6868 56.7963 45.4278C56.835 45.3763 56.866 45.3183 56.8995 45.2629C57.053 45.013 57.2284 44.7773 57.3883 44.5325C57.6127 44.1873 57.8771 43.8652 58.0473 43.4839C58.1131 43.3358 58.2098 43.2005 58.2937 43.0588C58.3594 42.9467 58.4394 42.8462 58.4845 42.7187C58.5194 42.6208 58.6096 42.5435 58.6625 42.4495C58.9759 41.8878 59.2958 41.3287 59.5356 40.7297C59.6092 40.5481 59.6943 40.3703 59.7626 40.1861C59.8968 39.8292 60.0231 39.4685 60.1495 39.1091C60.174 39.0383 60.1895 38.9623 60.2024 38.8876C60.2553 38.5771 60.3004 38.2641 60.3585 37.9549C60.3804 37.8389 60.4436 37.7294 60.4655 37.6135C60.5352 37.2502 60.6009 36.887 60.6577 36.5211C60.7505 35.9208 60.8331 35.3192 60.9246 34.7189C60.962 34.4716 61.0098 34.2281 61.024 33.9769C61.0317 33.8249 61.0497 33.6741 61.0278 33.5221C61.0214 33.4796 61.0214 33.4345 61.0227 33.3907C61.033 32.9128 61.0433 32.4336 61.0549 31.9557C61.0549 31.9338 61.0652 31.9093 61.0575 31.8913C60.9479 31.6053 61.0394 31.3077 61.0046 31.0178C60.9891 30.889 60.9737 30.7589 60.9569 30.6301C60.9491 30.5657 60.9208 30.4961 60.935 30.4356C61.0123 30.1187 60.9105 29.8069 60.9182 29.4926C60.9234 29.3097 60.8756 29.1255 60.8524 28.9425C60.7995 28.5213 60.7712 28.0962 60.6628 27.6827C60.5416 27.2189 60.4165 26.7577 60.294 26.294C60.2772 26.2308 60.2592 26.1677 60.245 26.1046C60.0889 25.4128 59.88 24.7352 59.6582 24.0628C59.5227 23.6505 59.319 23.2602 59.1462 22.8596C59.1036 22.7604 59.0623 22.6586 59.0159 22.5607C58.9604 22.4422 58.8998 22.3263 58.8405 22.2103C58.816 22.1627 58.7825 22.1176 58.7592 22.0686C58.6187 21.7736 58.4807 21.4786 58.3414 21.1836C58.3182 21.1347 58.295 21.0818 58.2588 21.0419C58.1002 20.868 58.037 20.6451 57.9313 20.4442C57.7791 20.1556 57.6127 19.8748 57.445 19.594C57.2503 19.2668 57.0659 18.9292 56.8427 18.6214C56.6648 18.3766 56.5551 18.079 56.3049 17.8871C56.1966 17.6037 55.9503 17.422 55.7865 17.1798C55.535 16.8101 55.2642 16.4546 54.9572 16.1274C54.8386 16.0011 54.7418 15.8543 54.6219 15.7306C54.4774 15.5825 54.3111 15.4601 54.1989 15.2797C54.1628 15.2218 54.0815 15.187 54.0157 15.1509C53.8958 15.0865 53.8094 15.0066 53.772 14.8649C53.7294 14.7026 53.6108 14.5867 53.4805 14.481C53.1955 14.2492 52.9246 14.0005 52.6499 13.7558C52.4758 13.5999 52.303 13.444 52.1431 13.2753C51.947 13.2315 51.84 13.0833 51.7368 12.93C51.7201 12.9055 51.6827 12.8952 51.6594 12.8733C51.5279 12.7484 51.2996 12.7561 51.2197 12.5577C51.0688 12.474 50.9192 12.3877 50.767 12.3065C50.7193 12.2808 50.6677 12.2614 50.6174 12.2447C50.4394 12.188 50.2704 12.1236 50.1608 11.9561C50.1337 11.9149 50.0783 11.8724 50.0318 11.866C49.9003 11.8479 49.8203 11.7629 49.7365 11.6766C49.5302 11.4679 49.1394 11.2579 48.8647 11.2167C48.7641 11.2012 48.6777 11.1819 48.6106 11.0917C48.5745 11.0428 48.4958 11.026 48.452 10.9797C48.3333 10.8521 48.1837 10.7864 48.0199 10.7632C47.8523 10.7401 47.7143 10.6576 47.5711 10.5816C47.4847 10.5365 47.3596 10.5133 47.3209 10.4425C47.2203 10.257 47.032 10.199 46.8798 10.0934C46.7199 9.98258 46.5535 9.86922 46.373 9.80223C46.017 9.67084 45.683 9.48276 45.3128 9.39001C45.3025 9.38743 45.2909 9.38614 45.2806 9.38228C44.7608 9.14009 44.1908 9.07568 43.6465 8.9211C43.0494 8.75105 42.4407 8.62352 41.8371 8.47537C41.6888 8.4393 41.5418 8.39808 41.3947 8.35428C41.3689 8.34655 41.3496 8.31563 41.3083 8.27699C41.77 8.19583 42.2124 8.17264 42.6573 8.18037C43.337 8.19197 44.0064 8.30018 44.677 8.39422C44.8176 8.41354 44.9595 8.4174 45.1 8.43157C45.2084 8.44188 45.3193 8.44961 45.425 8.4728C45.8506 8.56941 46.2762 8.66861 46.7006 8.77166C47.0397 8.85411 47.3802 8.93269 47.7155 9.02802C48.0818 9.13107 48.4404 9.26505 48.8092 9.35909C49.1819 9.45313 49.5185 9.63219 49.8758 9.7623C49.9545 9.79064 50.037 9.80996 50.166 9.84603C50.1157 9.76616 50.1015 9.71464 50.0705 9.70047C49.9145 9.62961 49.8384 9.44926 49.6488 9.41706C49.5753 9.40418 49.5121 9.314 49.4489 9.25346C49.1652 8.98035 48.8311 8.77166 48.5152 8.54236C48.3488 8.42127 48.1785 8.30662 48.0083 8.19068C47.8742 8.1005 47.7375 8.0129 47.5866 7.91371C47.593 7.85188 47.5995 7.77974 47.6059 7.71017C47.633 7.70116 47.6549 7.6857 47.673 7.68827C47.8677 7.71275 48.0483 7.7733 48.2288 7.85832C48.4739 7.97297 48.7396 8.04382 48.9962 8.13271C49.0375 8.14688 49.0826 8.14946 49.1226 8.16749C49.4205 8.30404 49.7313 8.40581 50.0318 8.53077C50.3323 8.65572 50.6199 8.8116 50.9153 8.95201C50.9617 8.97391 51.0159 8.98035 51.0662 8.9971C51.1887 9.03832 51.3203 9.06538 51.4092 9.17359C51.4234 9.19033 51.4389 9.20708 51.4583 9.21739C51.6478 9.32302 51.8555 9.40418 52.0219 9.53815C52.1805 9.66697 52.3262 9.80739 52.499 9.92462C52.7763 10.1127 53.0304 10.3343 53.2935 10.5442C53.4818 10.6937 53.6546 10.8573 53.7939 11.0557C53.83 11.1072 53.8919 11.1407 53.9435 11.1819C54.0634 11.2785 54.1666 11.3855 54.2556 11.513C54.3407 11.6354 54.4542 11.7449 54.5716 11.8389C54.7083 11.9484 54.8257 12.0721 54.9366 12.2073C55.1842 12.5075 55.4279 12.8115 55.6988 13.0923C56.0328 13.4376 56.3604 13.7867 56.7525 14.0688C56.7873 14.0946 56.8286 14.119 56.8505 14.1551C56.9537 14.3123 57.102 14.4231 57.2374 14.5493C57.4979 14.7954 57.7507 15.0504 58.0009 15.3068C58.0847 15.3918 58.1518 15.4923 58.2292 15.5837C58.3465 15.7254 58.4665 15.8659 58.5826 16.0101C58.6445 16.0861 58.7025 16.1647 58.7605 16.2433C58.8573 16.3747 58.9372 16.5229 59.0507 16.6375C59.2274 16.8179 59.3796 17.0111 59.5215 17.2198C59.7162 17.5058 59.9509 17.766 60.1418 18.0558C60.3327 18.3457 60.5777 18.6033 60.6925 18.9408C60.7093 18.9911 60.7351 19.049 60.775 19.0812C60.9027 19.1817 60.9492 19.3286 61.0175 19.4638C61.1104 19.6481 61.2122 19.8271 61.318 20.0049C61.4741 20.2664 61.603 20.5447 61.7384 20.8178C61.8249 20.9917 61.8945 21.172 62.0041 21.3395C62.1318 21.5366 62.1976 21.7749 62.2904 21.9952C62.3278 22.0854 62.3588 22.1794 62.4052 22.2644C62.6348 22.6986 62.8192 23.152 62.9624 23.6222C62.9907 23.7162 63.023 23.8103 63.0668 23.8979C63.1945 24.1542 63.2732 24.4196 63.308 24.7069C63.3338 24.9207 63.4022 25.1346 63.4847 25.3342C63.5698 25.5378 63.6175 25.749 63.6833 25.9552C63.7826 26.2656 63.9013 26.5722 63.989 26.8865C64.0921 27.2537 64.194 27.6234 64.2521 27.9996C64.2908 28.2456 64.3037 28.4955 64.3475 28.7429C64.3888 28.9786 64.4365 29.2118 64.4945 29.4449C64.5668 29.7374 64.5848 30.044 64.6235 30.3454C64.6441 30.5077 64.6519 30.6713 64.6802 30.8323C64.7679 31.327 64.8389 31.823 64.8608 32.3241C64.8621 32.3679 64.866 32.4117 64.875 32.4542C64.9795 32.9038 64.9627 33.3637 64.9975 33.8184C65.0078 33.9588 64.982 34.1031 64.9911 34.2435C65.0182 34.6699 64.9666 35.0899 64.9382 35.5137C64.9021 36.0239 64.9356 36.5391 64.9343 37.0518C64.933 37.4538 64.9446 37.8557 64.866 38.2563C64.8105 38.5436 64.8002 38.8386 64.7718 39.131C64.7589 39.2611 64.7731 39.399 64.7344 39.5201C64.6183 39.8872 64.5797 40.2685 64.5216 40.6434C64.452 41.0981 64.283 41.5284 64.234 41.9844C64.2031 42.2768 64.0586 42.5474 64.0741 42.8475C64.0741 42.8578 64.0741 42.8707 64.0702 42.8797C63.9039 43.2031 63.9168 43.5767 63.7568 43.9064C63.5814 44.2671 63.4589 44.6536 63.3235 45.0323C63.2461 45.2475 63.1803 45.4665 63.1262 45.6893C63.0359 46.0655 62.8179 46.3824 62.6554 46.7263C62.6283 46.7856 62.5896 46.8397 62.569 46.9003C62.4078 47.3524 62.2014 47.7865 61.9719 48.2052C61.8416 48.4422 61.7255 48.687 61.5863 48.9202C61.514 49.0413 61.4586 49.1727 61.3928 49.2989C61.3528 49.3762 61.3116 49.4522 61.2703 49.5282C61.229 49.6055 61.1787 49.6776 61.1503 49.7588C60.9582 50.2895 60.6396 50.743 60.3043 51.1874C60.2527 51.257 60.2024 51.3278 60.1508 51.3974C60.1199 51.4399 60.0967 51.4966 60.0541 51.5249C59.7239 51.7401 59.5266 52.0711 59.3048 52.3803C59.1152 52.6457 58.9411 52.9239 58.7489 53.188C58.6341 53.3465 58.4884 53.4817 58.3685 53.6376C58.1015 53.9841 57.7945 54.2907 57.485 54.5986C57.2374 54.8447 57.0014 55.1023 56.7512 55.3445C56.4687 55.6176 56.176 55.8791 55.8871 56.1445C55.8471 56.1818 55.7981 56.2102 55.7633 56.2501C55.4383 56.6237 55.0127 56.8788 54.6438 57.2008C54.5948 57.2433 54.5355 57.2742 54.4774 57.3052C54.2866 57.4082 54.115 57.5332 53.9461 57.6736C53.5875 57.9699 53.2342 58.2778 52.8111 58.489C52.6267 58.5805 52.4642 58.7145 52.2824 58.8098C52.0812 58.9154 51.8606 58.9876 51.662 59.0971C51.4634 59.2066 51.2983 59.3702 51.0842 59.4603C51.0056 59.4938 50.9411 59.5583 50.8714 59.6098C50.7837 59.6729 50.6948 59.7347 50.6109 59.8017C50.282 60.0632 49.8706 60.1714 49.5198 60.3917C49.396 60.469 49.2477 60.4317 49.1252 60.5218C49.0233 60.5966 48.8892 60.6288 48.7692 60.679C48.7486 60.6867 48.7241 60.6867 48.7073 60.6996C48.3514 60.9444 47.9245 61.0281 47.5401 61.2085C47.3738 61.287 47.1919 61.3347 47.0165 61.3927C46.8618 61.4442 46.7031 61.4867 46.5497 61.5408C46.2517 61.6439 45.9525 61.7482 45.6572 61.859C44.9298 62.1295 44.1753 62.3112 43.4312 62.5289C43.2338 62.5868 43.0249 62.6049 42.8211 62.641C42.7786 62.6487 42.7321 62.6474 42.6922 62.6616C42.2679 62.8226 41.819 62.8471 41.3767 62.9102C41.3122 62.9192 41.249 62.9372 41.1845 62.9501C40.9279 63.0004 40.6712 63.0506 40.4146 63.1021C40.1476 63.155 39.8806 63.2103 39.6137 63.2632C39.357 63.3147 39.1004 63.3688 38.8424 63.4113C38.6928 63.4371 38.5393 63.4422 38.3871 63.4577C38.1486 63.4822 37.9151 63.5208 37.6856 63.602C37.545 63.6509 37.3838 63.6599 37.2329 63.6561C37.011 63.6509 36.8021 63.7192 36.5867 63.7424C36.2398 63.7797 35.8916 63.8003 35.5447 63.8313C35.4041 63.8441 35.2648 63.8699 35.1242 63.8789C34.7876 63.8995 34.4497 63.9253 34.1131 63.9253C33.9944 63.9253 33.8758 63.9124 33.7571 63.9343C33.6926 63.9459 33.6256 63.9498 33.5611 63.9446C33.1252 63.906 32.6867 63.9691 32.2533 63.9408C31.6433 63.9021 31.0307 63.9189 30.422 63.8776C30.2814 63.8686 30.1382 63.8764 29.9964 63.8764C29.9306 63.8764 29.8648 63.8802 29.8003 63.8751C29.2122 63.8377 28.6241 63.8042 28.0373 63.7578C27.6891 63.7295 27.3435 63.6793 26.9965 63.638C26.9643 63.6342 26.9307 63.6264 26.8985 63.6264C26.2833 63.6355 25.6836 63.5041 25.0762 63.4461C24.4648 63.3881 23.8729 63.2374 23.2757 63.106C22.9353 63.0313 22.6064 62.9102 22.2569 62.8715C22.1498 62.8599 22.0467 62.8136 21.9435 62.7814C21.6933 62.7041 21.4431 62.6268 21.1929 62.5482C21.1194 62.525 21.0433 62.5096 20.9762 62.4761C20.5945 62.2854 20.1946 62.1424 19.7897 62.011C19.5627 61.9376 19.3447 61.8332 19.1268 61.7366C18.7579 61.573 18.38 61.4262 18.0292 61.2304C17.7326 61.0655 17.4257 60.9263 17.1213 60.7795C17.0039 60.7228 16.8801 60.6777 16.7576 60.63C16.7176 60.6146 16.6686 60.6133 16.6338 60.5901C16.1501 60.2732 15.5801 60.1161 15.1081 59.7798C14.7083 59.4951 14.2762 59.2658 13.8596 59.0108C13.7036 58.9154 13.5643 58.7905 13.416 58.6797C13.3554 58.6333 13.296 58.5844 13.2303 58.5457C12.9401 58.3718 12.6473 58.2031 12.3571 58.0291C12.2914 57.9905 12.2333 57.9403 12.1714 57.8952C12.1005 57.8436 12.036 57.7767 11.9573 57.7457C11.6981 57.644 11.4918 57.4623 11.2764 57.3013C10.9282 57.0424 10.6109 56.7435 10.2872 56.4537C10.2304 56.4034 10.1724 56.3506 10.126 56.2913C10.0034 56.1355 9.87318 55.9925 9.68102 55.9178C9.63201 55.8984 9.59203 55.8546 9.55205 55.8186C9.3831 55.6666 9.20254 55.5249 9.04906 55.3587C8.86206 55.1577 8.66344 54.9761 8.44806 54.8073C8.32038 54.7068 8.21721 54.5806 8.15401 54.4247C8.12564 54.3564 8.09469 54.2727 8.03923 54.2328C7.82385 54.0782 7.6923 53.8463 7.50142 53.6698C7.26928 53.456 7.0539 53.2241 6.83078 53C6.79209 52.9613 6.75727 52.9124 6.70955 52.8917C6.48514 52.7925 6.3781 52.5839 6.24397 52.4009C6.17948 52.3133 6.11629 52.2309 6.03504 52.1549C5.95121 52.0763 5.8893 51.9642 5.84932 51.856C5.81063 51.7491 5.75517 51.6666 5.68037 51.5842C5.58622 51.4799 5.50884 51.3601 5.43275 51.2415C5.37987 51.1604 5.35665 51.0522 5.28959 50.9865C5.00457 50.7056 4.86399 50.3321 4.64474 50.01C4.53512 49.8477 4.45128 49.6686 4.33521 49.5115C4.21269 49.3453 4.09662 49.1765 4.00376 48.9923C3.98441 48.9537 3.96636 48.9112 3.93541 48.8828C3.78193 48.7372 3.67747 48.5659 3.60395 48.365C3.5485 48.2142 3.46338 48.0674 3.36536 47.9398C3.16417 47.6783 3.01069 47.3898 2.87011 47.0961C2.63152 46.5962 2.35165 46.1157 2.18012 45.5837C2.05244 45.1908 1.86544 44.8185 1.71712 44.432C1.6191 44.1783 1.54688 43.9155 1.45789 43.6578C1.32634 43.2778 1.2064 42.8952 1.10323 42.5049C0.972966 42.0115 0.807884 41.5271 0.69697 41.0273C0.633775 40.74 0.551234 40.4579 0.476431 40.1732C0.462245 40.1204 0.43645 40.0676 0.43774 40.0147C0.448058 39.7262 0.339723 39.4595 0.295873 39.1813C0.221071 38.6982 0.174642 38.2112 0.121764 37.7256C0.09597 37.4873 0.0727551 37.2477 0.0624375 37.0093C0.0495405 36.7156 0.0521202 36.4206 0.0430923 36.1256C0.0340644 35.7997 0.0869422 35.4725 0.00698086 35.1479C-0.0110749 35.077 0.0108497 34.9959 0.0172982 34.9199C0.0495407 34.5398 0.0624376 34.1559 0.123054 33.7811C0.174642 33.459 0.116605 33.1254 0.227519 32.811C0.231388 32.8007 0.230099 32.7891 0.230099 32.7788C0.210753 32.4246 0.335854 32.0922 0.383573 31.7496C0.459665 31.2111 0.582187 30.6816 0.658279 30.1432C0.660858 30.1213 0.663438 30.0994 0.671176 30.0787C0.842706 29.6768 0.858182 29.2272 1.05809 28.833C1.08775 28.7764 1.10194 28.7081 1.11096 28.645C1.17029 28.2533 1.33408 27.8978 1.48627 27.5371C1.5069 27.4881 1.52109 27.4353 1.53785 27.3838C1.5817 27.2498 1.61911 27.1133 1.6694 26.9819C1.78935 26.6663 1.90929 26.3506 2.04213 26.0402C2.16078 25.7606 2.31683 25.4953 2.42001 25.2106C2.55801 24.8293 2.82497 24.5162 2.96039 24.1336C3.00682 24.0022 3.09581 23.885 3.16803 23.7626C3.3228 23.5011 3.49046 23.246 3.6233 22.9704C3.73034 22.7475 3.86963 22.5401 4.03987 22.352C4.17013 22.209 4.26428 22.0313 4.36488 21.8638C4.52222 21.6023 4.70278 21.3588 4.89623 21.1205C5.21866 20.7237 5.514 20.3038 5.83642 19.907C6.07631 19.612 6.34199 19.3376 6.59477 19.0529C6.71729 18.9138 6.85657 18.785 6.9533 18.6291C7.08872 18.4114 7.27315 18.2452 7.455 18.0739C7.74776 17.7969 8.02375 17.5019 8.3307 17.2404C8.58735 17.0214 8.81563 16.7702 9.08002 16.5654C9.34054 16.3631 9.55849 16.1209 9.79967 15.9019C10.0254 15.6971 10.2472 15.4871 10.4677 15.2759C10.8779 14.883 11.2906 14.4926 11.6942 14.092C12.1443 13.645 12.5996 13.2057 13.0807 12.7922C13.3631 12.55 13.6559 12.3246 13.9822 12.1416C14.1537 12.045 14.3175 11.9355 14.4826 11.8312C14.6115 11.75 14.7457 11.6817 14.8914 11.6495C14.9585 11.7139 14.912 11.7603 14.8811 11.7977C14.6502 12.0734 14.4194 12.3503 14.1808 12.6208C13.7823 13.0704 13.3786 13.5149 12.9775 13.9632C12.9375 14.0083 12.873 14.0495 12.9285 14.1461C12.962 14.1306 13.0033 14.1229 13.0317 14.0984C13.7861 13.4814 14.6115 12.9674 15.446 12.4688C15.7903 12.2627 16.1463 12.0656 16.5345 11.942C16.5654 11.9317 16.599 11.9239 16.626 11.9072C17.1806 11.5748 17.7932 11.3661 18.3813 11.1072C18.7695 10.9372 19.1848 10.8302 19.5885 10.6963C19.702 10.6589 19.8193 10.6293 19.9328 10.5932C20.0489 10.5571 20.165 10.5339 20.3094 10.5829C20.2888 10.6344 20.2836 10.695 20.2514 10.7182C20.0941 10.8354 19.9277 10.941 19.7678 11.0544C19.4118 11.3069 19.0546 11.5594 18.7025 11.817C18.1827 12.197 17.6772 12.6002 17.1445 12.9609C16.7292 13.2418 16.3384 13.5548 15.9206 13.8305C15.7413 13.949 15.5878 14.1062 15.4202 14.2427C15.2603 14.3715 15.0952 14.4913 14.9791 14.6691C14.9275 14.7477 14.8398 14.807 14.7599 14.8623C14.5986 14.9731 14.431 15.0736 14.2685 15.1818C14.2246 15.2114 14.1846 15.2514 14.1511 15.2939C14.0273 15.4446 13.879 15.5709 13.7423 15.7074C13.6327 15.8169 13.5076 15.8981 13.3515 15.9651C13.3463 16.0965 13.2586 16.1802 13.1593 16.2742C12.8537 16.5692 12.4887 16.7985 12.2204 17.1335C11.9264 17.3215 11.7278 17.623 11.4247 17.8033C11.3151 17.869 11.2261 17.9734 11.1371 18.0687C10.9101 18.3148 10.6999 18.5776 10.4639 18.8133C10.2188 19.0568 9.95701 19.2848 9.69005 19.5051C9.57139 19.603 9.47467 19.7151 9.37923 19.8323C9.31861 19.9083 9.25929 19.9856 9.19867 20.0616C9.10323 20.1801 9.0065 20.2973 8.91107 20.4158C8.87624 20.4584 8.85045 20.5086 8.80918 20.5434C8.47644 20.8268 8.22624 21.1772 7.97861 21.5314C7.92187 21.6113 7.88447 21.7002 7.83804 21.7839C7.73228 21.972 7.60847 22.1562 7.45886 22.3108C7.15965 22.6226 6.97652 22.9974 6.79338 23.3787C6.67086 23.6325 6.52254 23.876 6.36262 24.1092C6.22204 24.3127 6.05438 24.4982 5.97958 24.7378C5.94218 24.8589 5.79773 24.8847 5.76807 25.007C5.74227 25.1114 5.7268 25.2247 5.67392 25.3149C5.51142 25.5983 5.36955 25.8843 5.28701 26.2051C5.2251 26.4447 5.08582 26.6637 5.00715 26.8994C4.85496 27.3516 4.71052 27.8076 4.61379 28.2752C4.60992 28.2971 4.60863 28.3203 4.5996 28.3384C4.4616 28.6256 4.41646 28.94 4.33263 29.2427C4.24622 29.5583 4.20108 29.8804 4.13402 30.1998C4.08501 30.433 4.03342 30.6662 3.9857 30.9006C3.95991 31.0282 3.93927 31.157 3.91735 31.2858C3.90445 31.3605 3.89671 31.4365 3.88382 31.5112C3.84255 31.747 3.80902 31.9853 3.75614 32.2185C3.64909 32.6887 3.65554 33.1692 3.62717 33.6471C3.60266 34.0709 3.60266 34.4947 3.58977 34.9186C3.58461 35.0925 3.56913 35.2664 3.56139 35.4403C3.53302 36.0612 3.573 36.6821 3.62459 37.2992C3.65812 37.6985 3.68649 38.1043 3.81159 38.4921C3.84126 38.5835 3.85029 38.684 3.85802 38.7806C3.86705 38.9133 3.88382 39.0396 3.9612 39.1529C3.99086 39.1967 4.00505 39.2521 4.01666 39.3036C4.07598 39.569 4.13015 39.8344 4.19077 40.0985C4.21011 40.1835 4.23204 40.2698 4.27073 40.3471C4.40357 40.6125 4.47837 40.8959 4.5622 41.178C4.5996 41.3017 4.637 41.4305 4.70149 41.5413C4.87431 41.8453 4.94266 42.1905 5.1129 42.4958C5.30378 42.8372 5.45338 43.2005 5.60041 43.5625C5.60428 43.5728 5.60428 43.5844 5.60943 43.5934C5.78225 43.8948 5.95507 44.1963 6.13047 44.4964C6.1898 44.5982 6.26073 44.6948 6.32135 44.7966C6.53802 45.1625 6.76372 45.5231 6.96491 45.8967C7.18287 46.3025 7.50529 46.6323 7.74389 47.0226C7.80579 47.1244 7.8806 47.2197 7.93992 47.3228C8.0934 47.5882 8.29846 47.811 8.49062 48.0468C8.68795 48.2889 8.89172 48.5234 9.09549 48.7579C9.1574 48.8287 9.18448 48.9331 9.25026 48.9988C9.31732 49.0657 9.4205 49.0941 9.49401 49.1572C9.71713 49.3491 9.93251 49.5501 10.1518 49.7459C10.2575 49.84 10.3658 49.9301 10.4768 50.0164C10.6302 50.1375 10.7889 50.2522 10.9436 50.372C11.159 50.5395 11.3615 50.7263 11.5898 50.8731C11.8916 51.0676 12.1405 51.3382 12.4758 51.4837C12.5055 51.4966 12.53 51.5211 12.5545 51.543C12.9272 51.8831 13.3489 52.1536 13.7823 52.4074C13.848 52.446 13.9022 52.5014 13.9654 52.5439C14.0828 52.6225 14.2027 52.6959 14.3226 52.7706C14.3691 52.799 14.4232 52.8157 14.4658 52.8492C14.6734 53.0141 14.8991 53.1404 15.1597 53.1983C15.3725 53.371 15.6407 53.4508 15.86 53.6003C16.0612 53.7368 16.2778 53.8347 16.4906 53.9403C16.8621 54.1246 17.2451 54.2843 17.6269 54.4466C18.1079 54.6514 18.5928 54.8485 19.0778 55.0469C19.1384 55.0714 19.2003 55.0972 19.2648 55.1075C19.4918 55.1461 19.7033 55.2286 19.9148 55.3162C20.0953 55.3909 20.2836 55.445 20.4719 55.5004C20.9001 55.6266 21.3283 55.7554 21.7591 55.8714C22.0853 55.959 22.4129 56.0414 22.7302 56.1625C22.8811 56.2205 23.0462 56.2488 23.2074 56.2746C23.5182 56.3223 23.8174 56.4472 24.1398 56.4253C24.1721 56.4227 24.2056 56.4305 24.2379 56.4369C24.6028 56.5 24.9665 56.5825 25.3341 56.6198C25.7365 56.6611 26.1286 56.7538 26.5258 56.8118C27.141 56.9007 27.7613 56.9406 28.3829 56.9677C28.7982 56.9857 29.2122 57.014 29.6262 57.0346C29.7126 57.0385 29.8055 57.0514 29.8854 57.0269C30.0505 56.978 30.2117 56.9986 30.3704 57.0346C30.5006 57.0643 30.6244 57.072 30.7586 57.0488C30.974 57.0115 31.188 57.0218 31.4073 57.0759C31.5595 57.1081 31.74 57.0707 31.9438 57.0668ZM4.29652 40.8882C4.29007 40.8688 4.28491 40.8495 4.27846 40.8302C4.25912 40.8366 4.24106 40.8431 4.22172 40.8495C4.23075 40.8688 4.23591 40.8907 4.2488 40.9049C4.25396 40.9113 4.27975 40.8946 4.29652 40.8882Z" fill="#44413E"/>
<path d="M32.2999 4.48087C32.2225 4.58007 32.158 4.6419 32.1193 4.71662C32.0419 4.86734 31.9233 4.97941 31.7904 5.07603C31.5196 5.27184 31.2333 5.3092 30.9354 5.13142C30.8038 5.05284 30.6645 4.98714 30.5407 4.89826C30.2583 4.69729 30.1474 4.77588 29.9836 4.97168C29.7179 5.28987 29.4728 5.62481 29.2046 5.94042C28.908 6.28824 28.6203 6.6425 28.3108 6.9813C27.9123 7.41801 27.4648 7.79803 27.0353 8.19995C26.8934 8.33264 26.7812 8.49366 26.5942 8.58384C26.4201 8.66757 26.3195 8.85694 26.1286 8.93294C26.0538 8.96257 26.0035 9.05017 25.9391 9.10814C25.6321 9.38511 25.3394 9.68397 25.0105 9.93131C24.701 10.1632 24.4675 10.4646 24.1825 10.7184C23.7749 11.0817 23.3777 11.4566 22.9715 11.8198C22.8902 11.892 22.7729 11.9255 22.6942 12.0002C22.6181 12.0736 22.5781 12.1831 22.5072 12.263C22.4053 12.3763 22.2892 12.4781 22.1783 12.5825C22.1383 12.6198 22.0842 12.6456 22.0545 12.6894C21.8443 12.9947 21.5502 13.2279 21.3426 13.537C21.2162 13.7251 21.0472 13.8848 20.9041 14.0626C20.8022 14.1889 20.7106 14.3228 20.6152 14.4529C20.5958 14.4787 20.5791 14.5083 20.5571 14.5315C20.2799 14.8227 20.0632 15.1666 19.7691 15.4449C19.7085 15.5028 19.6595 15.5814 19.6247 15.6587C19.5254 15.879 19.4029 16.0787 19.2055 16.2268C19.1552 16.2655 19.1114 16.3196 19.0792 16.375C18.9141 16.6558 18.7748 16.9534 18.5852 17.2162C18.3866 17.4906 18.2254 17.7856 18.0409 18.0664C17.8423 18.3704 17.6347 18.6693 17.4464 18.981C17.3974 19.0635 17.2762 19.1214 17.2633 19.2013C17.2323 19.4113 17.0995 19.5646 16.9834 19.7114C16.8067 19.9343 16.6648 20.1778 16.5114 20.4135C16.4456 20.514 16.394 20.6222 16.3308 20.724C16.2315 20.8799 16.1322 21.037 16.0226 21.1852C15.9993 21.2161 15.9323 21.2148 15.8588 21.2354C15.8588 21.1117 15.8485 21.0138 15.8601 20.9198C15.9155 20.4779 15.9955 20.0412 16.1618 19.6226C16.2302 19.4512 16.2766 19.2696 16.336 19.0944C16.3682 19.0016 16.3914 18.8999 16.4482 18.8251C16.5513 18.6912 16.5862 18.5353 16.6365 18.3833C16.7087 18.1682 16.7538 17.9427 16.9305 17.774C16.9976 17.7096 17.035 17.6078 17.0685 17.5163C17.2207 17.0938 17.4799 16.7305 17.703 16.3466C17.7572 16.2539 17.8101 16.1585 17.8591 16.0632C18.0435 15.7064 18.1931 15.3302 18.4485 15.0133C18.4807 14.9734 18.4936 14.9167 18.5156 14.8678C18.629 14.6127 18.8651 14.4607 19.0353 14.2533C19.0585 14.2249 19.1797 14.2198 19.1552 14.1863C19.0753 14.0781 19.1256 14.0021 19.1862 13.9248C19.2455 13.8488 19.3306 13.7908 19.3796 13.7096C19.4596 13.5744 19.5834 13.4829 19.6789 13.3657C19.8298 13.1815 19.9652 12.9831 20.098 12.7834C20.3327 12.4279 20.5997 12.0994 20.877 11.7773C20.9544 11.6871 21.0137 11.5802 21.0898 11.4888C21.4238 11.0881 21.7282 10.6643 22.0803 10.2766C22.2621 10.0769 22.4685 9.89782 22.6245 9.67496C22.7187 9.53969 22.7974 9.40314 22.8051 9.22795C22.8219 8.83762 22.6142 8.60445 22.2647 8.51041C21.9487 8.4241 21.6211 8.38803 21.2949 8.48851C21.2845 8.49109 21.2729 8.49495 21.2626 8.49495C20.9221 8.47692 20.6281 8.62635 20.3237 8.74873C20.0812 8.84535 19.8246 8.90332 19.5796 8.99349C19.4054 9.05661 19.2429 9.15065 19.0727 9.22151C18.6703 9.38897 18.2602 9.53841 17.863 9.71747C17.6179 9.82825 17.3871 9.96738 17.1743 10.1439C16.9692 10.3139 16.7177 10.4337 16.4778 10.5561C16.4017 10.5947 16.2921 10.5703 16.1864 10.5754C16.1864 10.6257 16.1864 10.6849 16.1864 10.7635C16.0006 10.7983 15.8626 10.9876 15.6305 10.9065C15.6421 10.7661 15.6653 10.6463 15.7646 10.5445C15.922 10.3809 16.0509 10.1954 16.1838 10.0099C16.3476 9.78059 16.5475 9.57834 16.7332 9.3645C16.8402 9.24212 16.9434 9.11458 17.0621 9.0038C17.2362 8.84148 17.3845 8.65211 17.6063 8.53875C17.6992 8.49109 17.7701 8.39576 17.8397 8.31331C17.9739 8.15229 18.1312 8.02089 18.3144 7.91912C18.5117 7.80833 18.6948 7.67694 18.9115 7.59449C19.1011 7.52235 19.2636 7.37936 19.4454 7.28274C19.8194 7.08178 20.1896 6.8718 20.5778 6.70047C20.9157 6.55232 21.2742 6.45056 21.625 6.33204C21.9242 6.23027 22.2234 6.1285 22.5265 6.03833C22.7561 5.97005 22.9921 5.92883 23.2346 5.92239C23.3738 5.91852 23.5118 5.87472 23.6498 5.84252C24.0909 5.74075 24.5397 5.77167 24.986 5.75234C25.1601 5.74461 25.3342 5.72916 25.5083 5.71627C25.6708 5.70468 25.8346 5.6802 25.9971 5.68407C26.1622 5.68793 26.2924 5.64027 26.4072 5.52304C26.5594 5.36717 26.7219 5.2216 26.8805 5.07088C27.1488 4.81452 27.4248 4.5659 27.6814 4.29924C27.8465 4.12662 27.9832 3.92823 28.1328 3.74015C28.1999 3.65513 28.2554 3.55722 28.334 3.48251C28.4888 3.33436 28.5868 3.15659 28.6642 2.96078C28.7403 2.76884 28.8267 2.57947 28.9092 2.3901C28.9221 2.36047 28.9454 2.33213 28.9505 2.30121C29.024 1.86451 29.2394 1.45357 29.1775 0.992388C29.1594 0.854549 29.2149 0.734745 29.2949 0.627823C29.3761 0.519613 29.527 0.479678 29.6469 0.545377C29.7321 0.593041 29.8069 0.65874 29.883 0.720575C30.1112 0.906078 30.3318 1.1006 30.5652 1.28095C30.8477 1.49994 31.1714 1.47547 31.4396 1.19593C31.6279 1.00012 31.7878 0.777256 31.9594 0.564701C32.0484 0.453914 32.1348 0.341839 32.2238 0.232341C32.2509 0.198847 32.2792 0.165354 32.3115 0.134437C32.5114 -0.0575072 32.6881 -0.0459134 32.8596 0.182101C32.9305 0.27614 32.977 0.389503 33.0401 0.491272C33.1433 0.65874 33.2517 0.821055 33.3535 0.988523C33.3935 1.05293 33.4322 1.12121 33.4516 1.19335C33.5483 1.5489 33.8256 1.75501 34.1016 1.94438C34.2615 2.05388 34.4807 2.0191 34.6729 1.97401C34.8599 1.93021 35.0069 1.81685 35.1346 1.67772C35.2455 1.55663 35.3539 1.43425 35.4648 1.31315C35.5164 1.25776 35.5705 1.20237 35.6286 1.15213C35.8414 0.971776 36.0245 1.00141 36.1651 1.24617C36.2077 1.31959 36.236 1.40591 36.2502 1.48964C36.3353 1.99591 36.4785 2.48672 36.6113 2.98139C36.699 3.3086 36.7687 3.63838 36.9376 3.93725C36.9634 3.98362 36.9673 4.04159 36.9802 4.09441C36.9905 4.13692 36.9918 4.18587 37.0137 4.22066C37.1478 4.42935 37.2858 4.63675 37.4251 4.84157C37.4999 4.95236 37.607 4.97941 37.7385 4.97168C38.2699 4.93948 38.8012 4.88151 39.3352 4.91371C39.5312 4.92531 39.726 4.94978 39.9207 4.97297C40.2779 5.01548 40.6352 5.06057 40.9924 5.10437C41.0247 5.10824 41.0595 5.10566 41.0905 5.11468C41.5418 5.24994 42.0152 5.26926 42.4704 5.38391C42.7555 5.45605 43.0456 5.50501 43.332 5.5707C43.7382 5.66474 44.1135 5.84638 44.4966 6.00354C44.7674 6.11433 45.0369 6.23027 45.3039 6.35136C45.5322 6.45442 45.7772 6.53815 45.9771 6.68243C46.1938 6.8396 46.3679 7.0573 46.5575 7.25183C46.5678 7.26213 46.5562 7.29176 46.5549 7.31752C46.4453 7.36905 46.3382 7.33041 46.2415 7.28918C45.7643 7.08436 45.2549 7.02123 44.7493 6.93879C44.2786 6.8615 43.8104 6.76101 43.3397 6.68759C42.847 6.61029 42.3505 6.55232 41.8552 6.4892C41.814 6.48405 41.7701 6.50724 41.7276 6.51239C41.6631 6.52012 41.596 6.53558 41.5341 6.52527C41.1923 6.46473 40.857 6.52269 40.5281 6.59612C40.1142 6.68887 39.8214 6.96713 39.588 7.30979C39.5028 7.6151 39.4138 7.92041 39.5622 8.23216C39.6189 8.35067 39.6718 8.46919 39.7298 8.5877C39.9026 8.93939 40.0703 9.29364 40.2509 9.64146C40.4314 9.98928 40.6184 10.3358 40.8157 10.6733C41.0737 11.1152 41.3419 11.5532 41.6141 11.986C41.7998 12.281 41.9842 12.5799 42.2009 12.8517C42.4562 13.1725 42.6329 13.5319 42.8135 13.8913C42.9257 14.1154 43.025 14.346 43.1488 14.5637C43.332 14.8845 43.5215 15.204 43.7292 15.5106C44.0581 15.9975 44.3985 16.478 44.7442 16.9534C44.8783 17.1376 45.0447 17.2986 45.1904 17.4751C45.2381 17.5318 45.2781 17.5975 45.3065 17.6658C45.331 17.725 45.2601 17.801 45.1981 17.7933C45.1556 17.7881 45.1079 17.7843 45.073 17.7637C44.8267 17.6232 44.5739 17.4983 44.3534 17.3115C44.08 17.0783 43.795 16.858 43.4996 16.6532C43.0895 16.3685 42.7632 16.0078 42.4627 15.6162C42.3428 15.4603 42.2164 15.3096 42.0977 15.155C41.9313 14.9386 41.7663 14.7222 41.605 14.5019C41.3471 14.1502 41.0917 13.7985 40.8403 13.443C40.7023 13.2472 40.581 13.0398 40.4404 12.8453C40.3644 12.7409 40.2625 12.6559 40.1722 12.5606C40.127 12.5129 40.0793 12.4678 40.0419 12.415C39.8008 12.0788 39.548 11.749 39.3261 11.3999C39.1688 11.1513 38.9882 10.9194 38.818 10.6811C38.6607 10.4608 38.4801 10.2585 38.3099 10.0473C38.1938 9.90297 38.0855 9.75354 37.9629 9.6157C37.7243 9.34775 37.478 9.08753 37.2343 8.82216C37.1969 8.78222 37.1607 8.741 37.1298 8.69591C36.9944 8.49882 36.8473 8.31203 36.6823 8.13683C36.5275 7.97194 36.4037 7.77613 36.2812 7.58418C36.0593 7.23508 35.7679 6.93235 35.595 6.55104C35.2442 6.10145 35.034 5.5707 34.7542 5.08118C34.7322 5.04382 34.7129 5.00389 34.6897 4.96653C34.5917 4.80808 34.5169 4.79906 34.3853 4.93175C34.2783 5.03996 34.1712 5.14946 34.0655 5.26024C33.8978 5.43673 33.6798 5.51273 33.4503 5.53463C33.1549 5.56426 32.9641 5.3852 32.8145 5.15332C32.7087 4.98843 32.6055 4.82096 32.4933 4.66122C32.4546 4.60583 32.3889 4.56332 32.2999 4.48087ZM42.4756 6.30112C42.4679 6.29468 42.4601 6.28824 42.4511 6.28309C42.4421 6.29855 42.4317 6.314 42.4253 6.33075C42.424 6.33333 42.4408 6.34235 42.4485 6.34879C42.4575 6.33333 42.4666 6.31787 42.4756 6.30112Z" fill="#44413E"/>
<path d="M30.6696 10.6797C30.7547 10.8098 30.7818 10.9206 30.7896 11.0597C30.8115 11.441 30.7444 11.8146 30.738 12.1921C30.7302 12.6687 30.7186 13.1453 30.7728 13.6233C30.8154 13.9904 30.8179 14.3627 30.8566 14.7298C30.8824 14.9785 30.9276 15.2258 30.9804 15.4706C31.054 15.8107 31.1481 16.1456 31.3106 16.4573C31.3764 16.5823 31.4202 16.7188 31.4692 16.8515C31.6034 17.2109 31.793 17.5394 32.0083 17.8576C32.2598 18.2286 32.5319 18.5829 32.8015 18.9397C32.8337 18.9822 32.8595 19.0402 32.9021 19.0647C33.16 19.2141 33.3277 19.4679 33.5714 19.6328C33.832 19.8106 34.0835 20.0025 34.3556 20.1597C34.6948 20.3555 35.0636 20.3761 35.4286 20.2279C35.5898 20.1635 35.7446 20.0785 35.8942 19.9896C36.0619 19.8891 36.205 19.5632 36.1663 19.3996C36.1534 19.3481 36.1405 19.2837 36.1044 19.254C35.9045 19.0943 35.831 18.8444 35.6608 18.6589C35.497 18.4798 35.3951 18.2364 35.2971 18.0083C35.19 17.7597 35.1088 17.5034 34.9772 17.2638C34.8573 17.046 34.7722 16.809 34.6767 16.5784C34.6483 16.5089 34.6187 16.4329 34.6187 16.3594C34.6174 16.0683 34.5026 15.8094 34.3956 15.5504C34.2163 15.115 34.0912 14.668 34.0486 14.1978C34.0357 14.0587 33.9958 13.9208 33.9738 13.7817C33.9519 13.6426 33.9339 13.5022 33.9184 13.3618C33.899 13.1994 33.8668 13.0371 33.8707 12.8761C33.8784 12.5631 33.8152 12.2487 33.8965 11.9383C33.9119 11.879 33.9416 11.8236 33.9777 11.7347C34.0254 11.7888 34.0628 11.8133 34.0757 11.8481C34.1712 12.1122 34.2705 12.375 34.313 12.6558C34.3259 12.7395 34.3607 12.8259 34.4033 12.9006C34.5168 13.1015 34.5864 13.3141 34.6483 13.5357C34.7296 13.8281 34.847 14.1102 34.9579 14.3936C35.0649 14.6667 35.1655 14.9424 35.2545 15.2232C35.3267 15.4512 35.4247 15.6702 35.5112 15.8931C35.5421 15.973 35.5705 16.0541 35.6027 16.1327C35.6182 16.1701 35.635 16.2139 35.6646 16.2383C35.8581 16.3903 35.9548 16.6184 36.1109 16.8C36.1508 16.8464 36.1637 16.9147 36.2024 16.9623C36.3714 17.1736 36.5455 17.3797 36.717 17.5884C36.7725 17.6554 36.8383 17.7198 36.8705 17.7971C36.9711 18.0328 37.1542 18.1887 37.3335 18.36C37.4483 18.4695 37.5837 18.5571 37.6882 18.6782C37.7939 18.7993 37.9152 18.9075 38.0106 19.0363C38.0583 19.102 38.0906 19.1755 38.1486 19.2425C38.2788 19.3945 38.4439 19.4911 38.5948 19.6122C38.6619 19.6663 38.7896 19.683 38.7393 19.8286C38.7302 19.8556 38.7922 19.9213 38.8347 19.9523C38.9469 20.0347 39.0669 20.1068 39.1791 20.188C39.2203 20.2189 39.25 20.2653 39.2861 20.3039C39.437 20.4585 39.5853 20.617 39.762 20.7445C39.9232 20.8605 40.0406 21.0034 40.1192 21.198C40.1889 21.3719 40.2946 21.5329 40.4829 21.6398C40.6687 21.7455 40.8131 21.9271 40.9124 22.1152C41.0001 22.2814 41.1278 22.4102 41.2258 22.5635C41.3187 22.709 41.4347 22.8392 41.5328 22.9809C41.7301 23.2668 41.9119 23.5644 42.0628 23.8787C42.1338 24.0282 42.2137 24.1673 42.3272 24.2897C42.5168 24.4919 42.6213 24.7418 42.7103 25.0008C42.8044 25.2777 42.9037 25.5521 43.0172 25.8214C43.0675 25.9399 43.1565 26.0417 43.2313 26.1486C43.319 26.2748 43.4041 26.3972 43.4131 26.5608C43.417 26.6317 43.4557 26.709 43.4995 26.7669C43.6853 27.0155 43.7549 27.3131 43.8581 27.5965C43.9071 27.7279 43.9471 27.8632 43.9909 27.9972C44.0309 28.1195 44.0941 28.2406 44.1044 28.3656C44.1173 28.5344 44.165 28.6838 44.2385 28.8319C44.2811 28.9195 44.303 29.0161 44.3456 29.105C44.4294 29.2802 44.4617 29.4773 44.5932 29.6332C44.6525 29.7041 44.6732 29.8097 44.7041 29.9012C44.7699 30.0944 44.8241 30.2928 44.8976 30.4834C44.9943 30.732 45.0227 30.9974 45.0149 31.2512C45.0059 31.5269 45.0549 31.7923 45.0743 32.0615C45.0885 32.2457 45.1207 32.4299 45.1284 32.6141C45.1336 32.7314 45.1375 32.8537 45.0472 32.9555C44.9685 33.0457 44.8782 33.0689 44.7944 32.9929C44.7144 32.9194 44.6332 32.8421 44.579 32.7507C44.4668 32.5639 44.3778 32.3642 44.2669 32.1761C44.2179 32.095 44.2592 31.9919 44.2179 31.9391C44.1779 31.8876 44.0967 31.8579 44.0606 31.7871C43.8684 31.4122 43.6595 31.0464 43.5382 30.6367C43.3886 30.1266 43.1991 29.6268 43.0585 29.1141C42.9888 28.8603 42.9192 28.6142 42.7902 28.3836C42.7489 28.3089 42.7038 28.2394 42.6574 28.1685C42.5581 28.0178 42.4975 27.8426 42.4201 27.6777C42.3607 27.5502 42.313 27.4136 42.2356 27.2977C42.0125 26.9627 41.783 26.6317 41.5457 26.307C41.3148 25.9914 41.0556 25.7016 40.7847 25.4182C40.5487 25.1708 40.2766 24.975 40.0187 24.7573C39.7775 24.5551 39.5092 24.385 39.2474 24.2072C39.0591 24.0797 38.8579 23.9702 38.6722 23.8375C38.3124 23.5799 37.8906 23.4536 37.4947 23.2733C37.2097 23.1432 36.9195 23.0195 36.628 22.9126C36.334 22.8057 36.058 22.633 35.7343 22.6073C35.6724 22.6021 35.6053 22.5712 35.5563 22.5338C35.19 22.2556 34.7747 22.0688 34.3595 21.8807C34.2795 21.8447 34.2073 21.8073 34.1557 21.7274C34.077 21.605 33.9596 21.5277 33.8229 21.4736C33.6888 21.4208 33.574 21.3384 33.4941 21.2147C33.476 21.1877 33.4567 21.1593 33.4309 21.14C33.2039 20.9661 33.0143 20.7613 32.8479 20.5294C32.7667 20.416 32.6364 20.4237 32.5165 20.456C32.3811 20.492 32.3308 20.6157 32.3191 20.7329C32.3037 20.8836 32.3243 21.0524 32.4417 21.1567C32.5745 21.2753 32.6235 21.426 32.6661 21.5806C32.7099 21.7403 32.7641 21.891 32.8428 22.0366C32.8995 22.1409 32.9537 22.253 32.9782 22.369C33.0104 22.5248 33.0788 22.6511 33.182 22.7709C33.2361 22.8327 33.2684 22.919 33.2942 23.0002C33.3496 23.1651 33.4115 23.3222 33.5134 23.4678C33.6566 23.6713 33.7507 23.9006 33.8552 24.1261C33.9493 24.3258 34.0216 24.5512 34.2098 24.698C34.2408 24.7225 34.2705 24.7625 34.2808 24.7998C34.3246 24.9621 34.4239 25.0871 34.5271 25.2159C34.6264 25.3422 34.7296 25.4697 34.7799 25.6307C34.8044 25.7093 34.8702 25.7776 34.9231 25.8458C35.0701 26.0339 35.2364 26.2104 35.2377 26.4732C35.2377 26.5222 35.27 26.5801 35.3035 26.6188C35.5241 26.879 35.6401 27.2011 35.8271 27.4806C35.8749 27.5527 35.92 27.6275 35.9742 27.6944C36.1315 27.8902 36.2863 28.0873 36.4036 28.3102C36.4139 28.3295 36.423 28.3514 36.4384 28.3656C36.6009 28.5305 36.7183 28.7211 36.7712 28.9479C36.9763 29.1604 37.0485 29.4619 37.2613 29.6693C37.3051 29.7118 37.3309 29.7788 37.3516 29.8393C37.4057 29.99 37.3206 30.0982 37.1607 30.0879C37.1181 30.0854 37.0717 30.0763 37.0356 30.0557C36.7609 29.9024 36.4655 29.7788 36.2347 29.5572C36.156 29.4825 36.0748 29.4052 36.018 29.3137C35.8284 29.0046 35.5898 28.7392 35.3216 28.4983C35.2971 28.4764 35.2751 28.4506 35.2468 28.4352C34.9218 28.2484 34.6664 27.983 34.4072 27.7176C34.3453 27.6532 34.2963 27.5875 34.2498 27.5154C34.1789 27.4059 34.1067 27.2977 34.0293 27.1933C33.8294 26.9228 33.6295 26.651 33.4218 26.3843C33.2619 26.1782 33.0878 25.9811 32.9253 25.7763C32.7551 25.5624 32.6145 25.3306 32.5732 25.0536C32.5616 24.9712 32.5216 24.9158 32.4713 24.8565C32.2353 24.5795 32.118 24.2343 31.9361 23.9277C31.8961 23.6829 31.7259 23.5077 31.6137 23.3016C31.4847 23.0659 31.4125 22.7992 31.3196 22.5442C31.2577 22.3728 31.1997 22.2066 31.0991 22.0469C30.9804 21.8575 30.9185 21.6295 30.8515 21.4131C30.7302 21.0189 30.5897 20.6324 30.4039 20.2627C30.3898 20.2331 30.3549 20.2009 30.3614 20.1764C30.4349 19.8505 30.1963 19.6032 30.1434 19.3107C30.1344 19.2579 30.1151 19.2051 30.1163 19.1523C30.1267 18.8302 30.0351 18.5249 29.9448 18.2235C29.9035 18.0856 29.8894 17.9491 29.8752 17.8112C29.8584 17.6605 29.8687 17.5047 29.8313 17.3604C29.7333 16.9881 29.692 16.6158 29.7372 16.2319C29.7501 16.116 29.7036 15.9936 29.7101 15.8763C29.723 15.638 29.7475 15.3997 29.7759 15.164C29.7978 14.981 29.7823 14.793 29.8636 14.6191C29.8752 14.5933 29.8777 14.5546 29.8674 14.5302C29.8107 14.4001 29.8352 14.2725 29.879 14.1463C29.9371 13.9788 29.9216 13.8023 29.9448 13.6297C29.9783 13.3721 29.9745 13.108 30.0557 12.8568C30.0596 12.8465 30.0622 12.8349 30.0609 12.8246C30.0351 12.5167 30.1073 12.2191 30.1641 11.9215C30.2273 11.593 30.2505 11.2542 30.4014 10.9463C30.4633 10.7982 30.462 10.7982 30.6696 10.6797ZM36.1521 28.4017C36.147 28.3952 36.1444 28.3836 36.1379 28.3823C36.1302 28.3798 36.1199 28.3836 36.1096 28.3849C36.116 28.3952 36.1212 28.4068 36.1289 28.4146C36.1302 28.4171 36.1431 28.4068 36.1521 28.4017ZM36.7557 29.6693C36.7725 29.6615 36.7905 29.6538 36.8073 29.6461C36.8009 29.6384 36.7944 29.6255 36.788 29.6242C36.7712 29.6229 36.7544 29.6268 36.7377 29.6281C36.7441 29.6435 36.7493 29.6564 36.7557 29.6693Z" fill="#44413E"/>
<path d="M22.8527 15.3444C22.8849 15.316 22.9159 15.2877 22.9481 15.2593C22.9907 15.222 23.0346 15.1975 23.0887 15.2387L23.0758 15.231C23.1339 15.2851 23.121 15.3482 23.0965 15.4114C22.9688 15.7244 22.7818 16.0026 22.5909 16.2796C22.4942 16.42 22.3897 16.5553 22.3497 16.7279C22.342 16.7588 22.3278 16.7897 22.3097 16.8168C22.1614 17.0461 22.0828 17.3037 21.9938 17.5588C21.9615 17.6503 21.9331 17.7404 21.9099 17.8345C21.8442 18.1089 21.7513 18.3768 21.6688 18.6461C21.5669 18.9758 21.3928 19.285 21.3605 19.638C21.3502 19.7436 21.2999 19.8467 21.2638 19.9484C21.1696 20.2138 21.0549 20.474 20.9814 20.7446C20.9285 20.9417 20.9311 21.1529 20.9027 21.3578C20.8743 21.5613 20.8691 21.7713 20.7428 21.949C20.6834 22.369 20.4487 22.7387 20.3894 23.1587C20.312 23.7087 20.2101 24.255 20.1521 24.8076C20.1069 25.2404 20.1121 25.6771 20.0953 26.1126C20.0876 26.2981 20.0553 26.4849 20.076 26.6665C20.1134 26.9821 20.0218 27.2951 20.0915 27.6095C20.1173 27.7254 20.1031 27.8491 20.1147 27.9676C20.1534 28.3579 20.1688 28.7495 20.2256 29.1399C20.2759 29.4928 20.3081 29.8522 20.3649 30.2052C20.4332 30.6355 20.5093 31.0645 20.6086 31.4883C20.6925 31.8464 20.8214 32.1955 20.9169 32.5511C21.1181 33.2995 21.3695 34.0312 21.6326 34.7578C21.7797 35.1661 21.9873 35.5539 22.1692 35.9494C22.3459 36.3358 22.52 36.7236 22.7031 37.1075C22.8346 37.3819 22.9791 37.6511 23.1197 37.9216C23.1442 37.9693 23.179 38.0131 23.2009 38.0633C23.4576 38.6314 23.8071 39.1467 24.1295 39.6788C24.2765 39.9209 24.4081 40.1721 24.559 40.4117C24.8324 40.8446 25.1148 41.2736 25.396 41.7025C25.4863 41.8391 25.5714 41.9769 25.6101 42.1354C25.5559 42.2037 25.5056 42.1624 25.4656 42.1354C25.1664 41.928 24.933 41.6536 24.7034 41.3766C24.412 41.0236 24.1256 40.6655 23.8187 40.3241C23.4408 39.9029 23.0668 39.4765 22.7508 39.0076C22.4774 38.6018 22.2272 38.1806 21.968 37.7658C21.9512 37.7387 21.9409 37.7065 21.9319 37.6756C21.8222 37.2698 21.5875 36.9271 21.3747 36.5729C21.336 36.5072 21.2973 36.4402 21.2677 36.3706C21.0226 35.7755 20.6976 35.2202 20.3713 34.6676C20.2772 34.5091 20.1714 34.3558 20.0566 34.2103C19.9328 34.0531 19.7626 33.9488 19.5782 33.8753C19.404 33.8058 19.2325 33.8534 19.1164 34.0145C19.0094 34.1626 18.9217 34.3275 18.8314 34.4872C18.7889 34.5633 18.7682 34.6508 18.7231 34.7256C18.6135 34.9046 18.6019 35.1004 18.6354 35.295C18.6921 35.617 18.6741 35.9416 18.6908 36.265C18.7141 36.73 18.6883 37.1989 18.8043 37.6588C18.8417 37.8044 18.8546 37.9641 18.8366 38.1123C18.8056 38.3609 18.914 38.6108 18.8185 38.8569C18.8082 38.8826 18.8198 38.92 18.8301 38.9496C18.9036 39.1867 18.981 39.4237 19.0532 39.662C19.0713 39.7213 19.0455 39.7676 18.972 39.7895C18.8701 39.7264 18.8121 39.6195 18.7566 39.5164C18.6973 39.4044 18.6792 39.2691 18.6289 39.1583C18.5761 39.0424 18.5025 38.9406 18.4819 38.8066C18.4664 38.7139 18.3981 38.6301 18.3684 38.5374C18.2743 38.2359 18.1879 37.9319 18.0989 37.6292C18.1324 37.3819 18.0073 37.1654 17.966 36.9323C17.9415 36.7932 17.9248 36.6527 17.9132 36.511C17.9003 36.3487 17.9248 36.18 17.8848 36.0267C17.8448 35.8759 17.8319 35.7278 17.8293 35.5758C17.828 35.3916 17.8203 35.2086 17.7816 35.0244C17.7481 34.8673 17.7648 34.6998 17.7623 34.5362C17.7597 34.3198 17.7958 34.0956 17.7507 33.8882C17.7016 33.6602 17.7068 33.4348 17.6939 33.208C17.6784 32.9259 17.6965 32.6412 17.6746 32.3591C17.6552 32.1015 17.6913 31.8374 17.6036 31.5849C17.5894 31.5462 17.5959 31.4999 17.5959 31.4561C17.5985 31.2281 17.6204 31.0026 17.5894 30.7733C17.5727 30.6522 17.6281 30.517 17.6668 30.3933C17.7133 30.2439 17.7378 30.0944 17.6991 29.9437C17.6681 29.82 17.7261 29.7015 17.6952 29.5753C17.6642 29.4477 17.7004 29.3176 17.7352 29.1888C17.7584 29.1064 17.7507 29.0162 17.7558 28.9286C17.7726 28.7019 17.7971 28.4751 17.819 28.2484C17.8667 27.7537 17.9686 27.2668 18.0047 26.7708C18.0228 26.5132 18.086 26.2594 18.1311 26.0043C18.1556 25.8652 18.1879 25.7274 18.2162 25.5883C18.2472 25.4401 18.2846 25.292 18.3104 25.1425C18.3297 25.0356 18.3388 24.9261 18.3439 24.8179C18.3555 24.5757 18.4148 24.3464 18.4961 24.1197C18.5503 23.9677 18.5722 23.8054 18.6135 23.6482C18.6534 23.491 18.6896 23.3313 18.745 23.178C18.865 22.8405 18.981 22.503 19.0545 22.1513C19.0765 22.0457 19.1164 21.9426 19.1513 21.8396C19.2673 21.4879 19.3783 21.1349 19.5021 20.7871C19.5524 20.6441 19.6143 20.5011 19.6981 20.3761C19.8619 20.1301 19.9909 19.8699 20.0811 19.5903C20.1289 19.4409 20.2191 19.3237 20.3223 19.2116C20.3662 19.1639 20.4113 19.115 20.4423 19.0583C20.5055 18.9475 20.5648 18.8329 20.6164 18.7169C20.7234 18.4722 20.8653 18.2454 20.9852 18.0084C21.0033 17.9736 21.0484 17.9491 21.0845 17.926C21.1426 17.8886 21.1748 17.8499 21.1813 17.7727C21.1916 17.6593 21.2612 17.573 21.3734 17.5305C21.3773 17.5627 21.3721 17.5987 21.3876 17.6232C21.3966 17.64 21.434 17.6413 21.4572 17.649C21.4521 17.6322 21.4508 17.6103 21.4392 17.5975C21.4173 17.5743 21.3902 17.5575 21.3657 17.5382C21.572 17.2484 21.7526 16.9418 21.9409 16.6403C22.1356 16.3286 22.3291 16.013 22.5844 15.7411C22.6941 15.6239 22.7676 15.4732 22.8579 15.3366C22.8682 15.3392 22.8772 15.3457 22.8875 15.3469C22.8927 15.3482 22.8991 15.3418 22.9043 15.3379C22.8875 15.3392 22.8708 15.3418 22.8527 15.3444ZM17.8319 33.105C17.8306 33.096 17.8293 33.0779 17.828 33.0779C17.8113 33.0779 17.7945 33.0805 17.7777 33.0818C17.779 33.0921 17.7803 33.1101 17.7816 33.1101C17.7997 33.1089 17.8164 33.1063 17.8319 33.105Z" fill="#44413E"/>
<path d="M27.3835 26.5539C27.0675 26.4006 26.887 26.188 26.7696 25.9252C26.6587 25.6779 26.5761 25.4164 26.4626 25.1703C26.3246 24.874 26.175 24.5842 26.0151 24.2995C25.8758 24.0522 25.7417 23.7971 25.6862 23.5227C25.5985 23.0886 25.4734 22.6635 25.4064 22.2255C25.3587 21.9137 25.2942 21.6046 25.2439 21.2928C25.2271 21.1872 25.2284 21.0777 25.2232 20.9695C25.2168 20.8394 25.2194 20.7118 25.1536 20.5894C25.1188 20.525 25.1059 20.4464 25.093 20.3717C25.0607 20.1888 25.0208 20.0097 24.9537 19.8358C24.9266 19.7663 24.9124 19.6877 24.9124 19.613C24.915 19.1647 24.8389 18.7254 24.7602 18.2861C24.7319 18.1289 24.7086 17.9692 24.6945 17.8133C24.6687 17.5248 24.6687 17.2285 24.7873 16.9515C24.8196 16.8768 24.8092 16.8085 24.7835 16.7312C24.7422 16.6089 24.7228 16.4787 24.6919 16.3525C24.6583 16.2147 24.7138 16.0884 24.7835 15.9892C24.8621 15.8771 24.9021 15.7638 24.9163 15.635C24.9511 15.3322 25.0478 15.0437 25.1355 14.7538C25.1536 14.6933 25.1639 14.6289 25.1768 14.567C25.2039 14.4408 25.2194 14.3094 25.2619 14.187C25.3445 13.9513 25.418 13.7142 25.4773 13.472C25.5134 13.3239 25.556 13.1783 25.6785 13.0714C25.7004 13.0521 25.7249 13.0199 25.7262 12.9915C25.743 12.7287 25.899 12.5239 26.0293 12.3165C26.0886 12.2225 26.1118 12.1207 26.166 12.0215C26.215 12.0241 26.2653 12.0267 26.3169 12.0305C26.3724 11.9687 26.2885 11.9404 26.2847 11.8927C26.2885 11.8721 26.2872 11.8476 26.2976 11.8309C26.4343 11.6222 26.5581 11.4006 26.7154 11.2074C26.994 10.8686 27.1642 10.4641 27.4144 10.1098C27.5189 9.96295 27.6427 9.82898 27.7511 9.69629C27.8284 9.71819 27.8336 9.75683 27.8194 9.80321C27.8039 9.85603 27.8001 9.91915 27.7678 9.95651C27.5447 10.2142 27.4841 10.5671 27.2378 10.8145C27.0959 10.9562 27.0881 11.1713 27.043 11.362C27.0159 11.4753 26.9914 11.5887 26.9669 11.7033C26.9424 11.8193 26.9205 11.9352 26.896 12.0499C26.8857 12.1027 26.8625 12.1568 26.8663 12.2083C26.8779 12.3874 26.8405 12.5548 26.7748 12.7197C26.7554 12.77 26.7386 12.8254 26.7386 12.8782C26.7412 13.3355 26.6329 13.7864 26.6638 14.2463C26.6754 14.4279 26.6355 14.6147 26.6058 14.7976C26.5478 15.1519 26.4743 15.5036 26.4188 15.8578C26.4007 15.9738 26.4149 16.0949 26.4201 16.2147C26.4227 16.2894 26.4381 16.3654 26.4407 16.4401C26.4459 16.5676 26.4871 16.7145 26.4369 16.8163C26.3775 16.9373 26.3827 17.0675 26.3272 17.1821C26.3001 17.2388 26.2834 17.3071 26.2834 17.3702C26.2808 17.8661 26.2357 18.3608 26.2498 18.8581C26.2563 19.0874 26.3066 19.3373 26.1686 19.5563C26.1583 19.573 26.1531 19.5988 26.1557 19.6194C26.1802 19.8667 26.2099 20.1141 26.2331 20.3614C26.2498 20.534 26.2756 20.7092 26.2705 20.8819C26.2614 21.1691 26.2834 21.4422 26.4304 21.6986C26.6122 22.0168 26.6522 22.3762 26.7051 22.7304C26.7464 23.0074 26.7502 23.2986 26.8392 23.5601C26.9618 23.922 27.0366 24.2956 27.1565 24.6563C27.2081 24.8109 27.2442 24.9681 27.2661 25.1304C27.2958 25.3442 27.3448 25.5568 27.4041 25.7655C27.4557 25.9471 27.4673 26.13 27.466 26.3156C27.4609 26.3851 27.417 26.4547 27.3835 26.5539Z" fill="#44413E"/>
<path d="M41.1496 44.1998C41.1586 44.2732 41.1741 44.3467 41.1767 44.4201C41.1793 44.5064 41.1754 44.594 41.1638 44.679C41.1612 44.7035 41.1251 44.7357 41.0993 44.7409C41.0735 44.746 41.0258 44.7331 41.0129 44.7125C40.9368 44.5811 40.8568 44.451 40.8014 44.3106C40.7021 44.0594 40.5834 43.8224 40.4222 43.6021C40.2958 43.4295 40.1901 43.2388 40.1398 43.0198C40.1037 42.8626 40.0289 42.7145 39.967 42.5638C39.9502 42.5238 39.9192 42.4904 39.9012 42.4504C39.7838 42.1812 39.651 41.9223 39.482 41.6775C39.3415 41.4727 39.2486 41.2356 39.1351 41.0128C39.1003 40.9458 39.0809 40.8672 39.0371 40.8079C38.8385 40.5464 38.6876 40.2566 38.5277 39.9719C38.4374 39.8122 38.3045 39.6782 38.1936 39.53C38.0634 39.3561 37.8918 39.217 37.8028 39.0109C37.7796 38.9568 37.7164 38.9156 37.6636 38.8769C37.4688 38.7365 37.3166 38.5613 37.1967 38.3526C37.0935 38.1735 36.9761 38.0022 36.784 37.8992C36.7375 37.8734 36.6834 37.8373 36.6615 37.7935C36.5235 37.5153 36.2242 37.4225 36.0205 37.2254C35.8257 37.0361 35.5897 36.8905 35.4182 36.6857C35.2015 36.4267 34.9913 36.1652 34.7308 35.9462C34.6998 35.9205 34.6934 35.8664 34.665 35.838C34.5451 35.7182 34.4677 35.5623 34.3116 35.4657C34.1981 35.3949 34.1078 35.2686 34.0395 35.1488C33.9518 34.9942 33.8447 34.8615 33.7171 34.7417C33.6539 34.6825 33.5752 34.6335 33.5275 34.564C33.3714 34.3385 33.1896 34.1401 32.9768 33.9675C32.9291 33.9289 32.8942 33.8722 32.8543 33.8232C32.7627 33.7163 32.666 33.6133 32.5808 33.5012C32.2687 33.0851 31.8947 32.7115 31.6729 32.231C31.6497 32.1821 31.6265 32.1318 31.6097 32.0803C31.5787 31.9837 31.6368 31.909 31.6935 31.8484C31.7541 31.7853 31.8341 31.8123 31.9063 31.8484C32.252 32.021 32.5305 32.28 32.8091 32.5389C32.9445 32.6639 33.0632 32.8068 33.196 32.937C33.2902 33.0284 33.3611 33.1315 33.3895 33.2603C33.5391 33.2487 33.6216 33.3659 33.7197 33.4445C34.0163 33.6803 34.3052 33.9263 34.5979 34.1659C34.6379 34.1994 34.6831 34.2381 34.7321 34.2484C34.9216 34.2934 35.0571 34.421 35.2054 34.5305C35.3537 34.64 35.4969 34.7559 35.6465 34.8628C35.8141 34.9826 35.965 35.1179 36.1056 35.2686C36.2088 35.3781 36.3339 35.4709 36.459 35.5559C36.7492 35.753 36.9903 35.9952 37.2044 36.2734C37.4095 36.5388 37.6481 36.7784 37.8699 37.0309C37.9267 37.0953 37.9847 37.1623 38.0272 37.237C38.0801 37.3311 38.1149 37.4315 38.2233 37.4869C38.2658 37.5088 38.2942 37.5694 38.3136 37.6183C38.3961 37.8232 38.5444 37.9803 38.6863 38.1439C38.8281 38.3075 38.9571 38.4789 39.0629 38.6734C39.2073 38.9413 39.3866 39.1899 39.5517 39.4463C39.5749 39.4824 39.6136 39.5107 39.6316 39.5494C39.7425 39.7838 39.838 40.0273 39.9618 40.254C40.0921 40.4923 40.1617 40.7564 40.3242 40.9819C40.4106 41.1004 40.4493 41.2562 40.4996 41.3979C40.5989 41.6839 40.6802 41.9751 40.8169 42.2482C40.8594 42.3332 40.8801 42.4337 40.8968 42.529C40.9884 43.0417 41.0748 43.5557 41.1625 44.0697C41.1702 44.1122 41.1677 44.156 41.1702 44.1985C41.1664 44.1972 41.1573 44.1985 41.1496 44.1998Z" fill="#44413E"/>
<path d="M7.63434 33.4836C7.67174 33.1718 7.63176 32.9065 7.55825 32.6475C7.52213 32.5187 7.54148 32.3912 7.56341 32.2701C7.59565 32.0859 7.60081 31.9042 7.5892 31.72C7.57114 31.4392 7.55309 31.1584 7.54406 30.8775C7.54019 30.7693 7.56212 30.6611 7.57372 30.5529C7.62144 30.1213 7.68077 29.6911 7.78136 29.2673C7.80845 29.1513 7.83295 29.0328 7.86777 28.9194C8.02383 28.4222 8.18246 27.9275 8.34109 27.4315C8.43395 27.1417 8.53971 26.857 8.70866 26.6006C8.77443 26.5015 8.81699 26.392 8.8531 26.276C8.90082 26.1227 8.99755 25.9849 9.06462 25.8367C9.24646 25.4425 9.42315 25.0458 9.66948 24.6851C9.71075 24.6245 9.72881 24.5459 9.743 24.4725C9.78298 24.2638 9.87713 24.077 9.99707 23.9121C10.2047 23.6287 10.3891 23.3389 10.4949 23.0014C10.5168 22.9305 10.5542 22.8584 10.6019 22.8004C10.776 22.5917 10.9514 22.3856 11.1359 22.1859C11.3564 21.9476 11.5808 21.7157 11.773 21.4504C11.951 21.2043 12.1676 20.9853 12.3675 20.756C12.423 20.6929 12.4913 20.6684 12.5726 20.6955C12.6397 20.7187 12.7106 20.8294 12.7003 20.9054C12.6938 20.9583 12.6758 21.0124 12.6526 21.06C12.5365 21.2932 12.3985 21.5161 12.3056 21.7582C12.196 22.0404 11.9832 22.2761 11.9419 22.5904C11.9303 22.6832 11.862 22.7669 11.8194 22.8558C11.5924 23.3376 11.3925 23.8323 11.1436 24.3038C11.123 24.3424 11.1088 24.3849 11.0817 24.4184C10.8612 24.6954 10.749 25.029 10.6019 25.3434C10.5465 25.4606 10.4781 25.5714 10.4188 25.6873C10.3956 25.7337 10.3801 25.7839 10.3633 25.8329C10.3388 25.905 10.3298 25.9849 10.2924 26.048C10.2279 26.1536 10.1957 26.2631 10.1854 26.3842C10.1776 26.4693 10.1738 26.5697 10.1286 26.6354C9.96354 26.8699 9.95064 27.1623 9.81393 27.4058C9.7675 27.4895 9.74687 27.59 9.72107 27.684C9.65272 27.9249 9.57792 28.1645 9.46055 28.3874C9.35351 28.5909 9.27484 28.8035 9.23486 29.0315C9.17424 29.3742 9.00529 29.6821 8.88793 30.0067C8.82473 30.1819 8.77056 30.3571 8.74993 30.54C8.71898 30.8144 8.62225 31.0579 8.5036 31.3091C8.32304 31.6904 8.15925 32.0833 8.0651 32.4994C8.02383 32.6785 7.95676 32.8524 7.9271 33.0327C7.89615 33.2156 7.79297 33.3367 7.63434 33.4836Z" fill="#44413E"/>
<path d="M58.1402 34.5227C58.0499 34.4261 57.9932 34.3887 57.9674 34.3359C57.7598 33.9069 57.4786 33.5101 57.3754 33.0335C57.3664 32.991 57.3522 32.9472 57.329 32.9111C57.1149 32.5788 57.0259 32.1975 56.8892 31.8329C56.7977 31.5881 56.688 31.3524 56.541 31.1347C56.4017 30.9286 56.2985 30.6993 56.1799 30.4815C56.0458 30.2368 55.9503 29.9637 55.753 29.7537C55.6705 29.6674 55.6331 29.5592 55.6408 29.4368C55.5092 29.4085 55.4422 29.299 55.3829 29.1998C55.2668 29.0053 55.1649 28.8004 55.0669 28.5956C54.9998 28.4578 54.9482 28.3122 54.8089 28.2259C54.6967 27.9734 54.4826 27.7956 54.3356 27.5689C54.0622 27.1489 53.7243 26.7805 53.389 26.4108C53.2922 26.3052 53.2058 26.1982 53.1439 26.0681C53.1027 25.9805 53.0446 25.8981 52.9801 25.8272C52.7841 25.6095 52.5765 25.4047 52.4475 25.1329C52.3946 25.0208 52.2798 24.9358 52.1844 24.8482C51.8994 24.5893 51.6659 24.2904 51.4544 23.9709C51.4183 23.9168 51.377 23.8653 51.3306 23.8189C51.1514 23.6424 50.9863 23.4556 50.9166 23.1967C50.9669 23.1361 51.0404 23.149 51.1114 23.1903C51.27 23.2856 51.4402 23.368 51.5782 23.4891C51.6956 23.5909 51.8233 23.6656 51.9548 23.7403C52.1444 23.8485 52.3405 23.9477 52.4668 24.1371C52.4784 24.1551 52.4952 24.1732 52.5133 24.1822C52.8215 24.3174 53.0021 24.6137 53.2768 24.7915C53.34 24.8327 53.3941 24.8894 53.4457 24.9461C53.585 25.0968 53.7398 25.2308 53.8894 25.3712C54.2208 25.683 54.5652 25.987 54.7973 26.3889C54.8076 26.4069 54.8218 26.4275 54.8386 26.4378C55.0772 26.5783 55.1894 26.8179 55.3184 27.0433C55.3958 27.1786 55.5067 27.2829 55.6227 27.3808C55.7246 27.4671 55.7878 27.5792 55.8691 27.681C56.136 28.0133 56.3308 28.3921 56.5836 28.7322C56.7577 28.9679 56.9176 29.2139 57.0285 29.487C57.0491 29.5373 57.0633 29.5927 57.093 29.6365C57.2903 29.9289 57.3432 30.2845 57.5121 30.5885C57.5379 30.6336 57.5341 30.6941 57.5495 30.7456C57.6102 30.9427 57.6811 31.136 57.7327 31.3356C57.7972 31.5881 57.8462 31.8458 57.9016 32.1008C57.939 32.2709 57.9584 32.4461 58.0177 32.6084C58.099 32.83 58.1131 33.0554 58.1106 33.2847C58.1093 33.3942 58.1196 33.4973 58.148 33.6055C58.215 33.8837 58.1828 34.1658 58.1402 34.5227ZM56.906 29.7357C56.9021 29.7279 56.8995 29.7215 56.8957 29.7138C56.8905 29.7202 56.8828 29.7267 56.8828 29.7331C56.8828 29.7408 56.8892 29.7486 56.8918 29.7563C56.8957 29.7486 56.9008 29.7421 56.906 29.7357Z" fill="#44413E"/>
<path d="M44.766 12.7835C44.8343 12.7719 44.9066 12.7435 44.9762 12.75C45.0729 12.759 45.1671 12.7925 45.2625 12.817C45.3579 12.8414 45.4521 12.8852 45.5475 12.8865C45.8209 12.8904 46.0583 13.0037 46.2865 13.1248C46.7869 13.3902 47.2899 13.6491 47.8161 13.8617C47.9154 13.9016 48.0044 13.9699 48.0934 14.0317C48.3268 14.1928 48.5564 14.3577 48.7873 14.5225C48.8143 14.5419 48.8427 14.5625 48.8582 14.5895C49.0078 14.8459 49.2696 14.9721 49.5005 15.1306C49.6539 15.2362 49.7855 15.3599 49.9106 15.4964C50.0486 15.6484 50.1763 15.8121 50.3607 15.919C50.4226 15.955 50.4613 16.0285 50.5103 16.0864C50.5941 16.1869 50.6805 16.2848 50.7605 16.3879C50.8663 16.5231 51.0249 16.6017 51.1023 16.7756C51.1655 16.9173 51.3035 17.0243 51.395 17.1608C51.4918 17.3038 51.6156 17.4288 51.7342 17.5563C51.889 17.7238 52.0528 17.8822 52.2063 18.0497C52.3004 18.1527 52.3907 18.2545 52.4229 18.4039C52.4423 18.4928 52.5287 18.565 52.5751 18.6513C52.7402 18.9553 52.9014 19.2619 53.0652 19.5659C53.091 19.6136 53.1194 19.6612 53.1568 19.6999C53.3915 19.9382 53.5256 20.2371 53.6649 20.5334C53.7294 20.6712 53.79 20.8103 53.8648 20.9417C54.0828 21.3192 54.2221 21.7275 54.3368 22.1449C54.3665 22.2518 54.4181 22.3716 54.3227 22.5082C54.2827 22.4747 54.2478 22.4541 54.2259 22.4245C54.0673 22.2158 53.8996 22.0148 53.759 21.7945C53.6185 21.5755 53.4908 21.3449 53.385 21.1079C53.2896 20.8966 53.1619 20.7124 53.0265 20.5282C52.9375 20.4058 52.8627 20.2719 52.7879 20.1405C52.6744 19.9434 52.5222 19.7772 52.3713 19.6097C52.343 19.5775 52.2978 19.5608 52.2682 19.5286C51.8129 19.0146 51.2738 18.5843 50.816 18.0742C50.7811 18.0355 50.7321 18.011 50.6896 17.9788C50.647 17.9466 50.5928 17.9209 50.5645 17.8796C50.402 17.64 50.1621 17.4932 49.9377 17.3257C49.7649 17.1969 49.5766 17.0784 49.4605 16.8851C49.4386 16.8478 49.4102 16.8104 49.3754 16.7872C48.942 16.5064 48.6531 16.0633 48.225 15.7773C48.185 15.7502 48.1579 15.6974 48.136 15.651C48.1179 15.6124 48.1153 15.566 48.056 15.5724C47.9593 15.5827 47.8999 15.508 47.8226 15.4732C47.4692 15.3122 47.2577 15.0031 47.0281 14.7171C46.9095 14.5689 46.7766 14.4478 46.6167 14.3525C46.4 14.2237 46.2066 14.0704 46.0312 13.8862C45.9125 13.7612 45.7642 13.6633 45.6223 13.5615C45.4805 13.4598 45.3347 13.3644 45.1851 13.2743C45.0136 13.1712 44.8937 13.0166 44.766 12.8685C44.7569 12.8569 44.766 12.8285 44.766 12.7835ZM52.8872 19.8635C52.8588 19.8429 52.8292 19.8171 52.8266 19.8197C52.8047 19.8403 52.7879 19.8661 52.7699 19.8905C52.7879 19.9021 52.8111 19.9253 52.8227 19.9215C52.8472 19.9099 52.8653 19.8854 52.8872 19.8635Z" fill="#44413E"/>
<path d="M51.5446 40.8458C51.4556 40.65 51.4698 40.4426 51.4531 40.2442C51.417 39.8101 51.4041 39.376 51.3164 38.947C51.2867 38.7989 51.2906 38.643 51.2777 38.4923C51.2661 38.3441 51.2454 38.1998 51.1668 38.0646C51.1242 37.9924 51.1165 37.8997 51.0958 37.8159C51.061 37.6691 51.0288 37.5197 50.9939 37.3728C50.981 37.32 50.9591 37.2697 50.954 37.2156C50.9307 36.9863 50.8817 36.7738 50.7553 36.569C50.6754 36.4388 50.6741 36.2585 50.6367 36.1013C50.6096 35.9854 50.5851 35.8695 50.5503 35.7548C50.4497 35.4237 50.2691 35.121 50.2021 34.7783C50.0408 34.5684 50.0576 34.2849 49.9222 34.0698C49.8035 33.8817 49.7403 33.6756 49.6655 33.4734C49.5649 33.199 49.4772 32.9194 49.3921 32.6399C49.3754 32.5832 49.3405 32.5523 49.3096 32.5111C49.2477 32.4273 49.2077 32.3269 49.1587 32.2341C49.2387 32.1117 49.0955 32.0216 49.111 31.8992C49.1252 31.7845 49.0852 31.6634 49.0684 31.5462C49.062 31.5037 49.0607 31.4586 49.0452 31.42C48.8982 31.0554 48.7976 30.6792 48.755 30.2876C48.7486 30.2271 48.7137 30.1691 48.6841 30.0892C48.7499 30.0725 48.7989 30.0493 48.8466 30.0532C48.8866 30.0557 48.9291 30.0828 48.9627 30.1086C49.0491 30.1743 49.1535 30.2309 49.2129 30.3185C49.3857 30.5736 49.6849 30.7114 49.8319 30.982C50.0034 31.2976 50.2059 31.5913 50.3955 31.8927C50.5142 32.0821 50.5658 32.314 50.647 32.5265C50.8314 33.0135 51.0133 33.5004 51.2016 33.9861C51.288 34.2089 51.3886 34.4228 51.3899 34.6714C51.3899 34.7642 51.444 34.8582 51.4763 34.9497C51.5201 35.0733 51.5846 35.1918 51.6091 35.3181C51.6942 35.7754 51.7665 36.2353 51.8438 36.6939C51.8748 36.8768 51.9045 37.0585 51.9328 37.2414C51.9651 37.4436 52.0296 37.6459 51.9225 37.8482C51.9122 37.8688 51.9303 37.9048 51.9354 37.9345C51.9444 37.986 51.9715 38.0414 51.9599 38.0865C51.9199 38.2269 51.9354 38.366 51.9432 38.5077C51.9599 38.7885 52.0102 39.0707 51.9225 39.3489C51.9573 39.8037 51.7445 40.221 51.72 40.6668C51.7136 40.7569 51.662 40.8278 51.5446 40.8458ZM51.5111 38.558C51.4969 38.5708 51.4724 38.5811 51.4698 38.5953C51.4673 38.6108 51.4853 38.6288 51.493 38.6456C51.5124 38.6288 51.533 38.6121 51.5524 38.5953C51.5395 38.5837 51.5253 38.5708 51.5111 38.558Z" fill="#44413E"/>
</svg>
